{
    "asset": {
        "generator": "COLLADA2GLTF",
        "version": "2.0"
    },
    "scenes": [
        {
            "nodes": [
                0
            ]
        }
    ],
    "scene": 0,
    "nodes": [
        {
            "children": [
                1
            ],
            "name": "Y_UP"
        },
        {
            "children": [
                2
            ],
            "name": "scene"
        },
        {
            "children": [
                3
            ],
            "matrix": [
                83.55722045898438,
                0.0,
                0.0,
                0.0,
                0.0,
                83.55722045898438,
                0.0,
                0.0,
                0.0,
                0.0,
                83.55722045898438,
                0.0,
                29.543909072875978,
                0.0,
                319.0520935058594,
                1.0
            ],
            "name": "Meshes"
        },
        {
            "children": [
                4
            ],
            "matrix": [
                1.0,
                0.0,
                -0.0,
                0.0,
                -0.0,
                5.9604637669963277e-8,
                -0.9999999403953552,
                0.0,
                0.0,
                0.9999999403953552,
                5.9604637669963277e-8,
                0.0,
                0.0,
                0.0,
                0.0,
                1.0
            ],
            "name": "Sketchfab_model"
        },
        {
            "children": [
                7,
                5
            ],
            "name": "test3_tif_coq_obj_cleaner_materialmerger_gles"
        },
        {
            "children": [
                6
            ],
            "name": "Object_3"
        },
        {
            "mesh": 0,
            "name": "Object_1"
        },
        {
            "children": [
                8
            ],
            "name": "Object_2"
        },
        {
            "mesh": 1,
            "name": "Object_0"
        }
    ],
    "meshes": [
        {
            "primitives": [
                {
                    "attributes": {
                        "NORMAL": 1,
                        "POSITION": 2
                    },
                    "indices": 0,
                    "mode": 4,
                    "material": 0
                }
            ],
            "name": "geometry8"
        },
        {
            "primitives": [
                {
                    "attributes": {
                        "NORMAL": 4,
                        "POSITION": 5
                    },
                    "indices": 3,
                    "mode": 4,
                    "material": 1
                }
            ],
            "name": "geometry2"
        }
    ],
    "accessors": [
        {
            "bufferView": 0,
            "byteOffset": 0,
            "componentType": 5123,
            "count": 125265,
            "max": [
                23182
            ],
            "min": [
                0
            ],
            "type": "SCALAR"
        },
        {
            "bufferView": 1,
            "byteOffset": 0,
            "componentType": 5126,
            "count": 23183,
            "max": [
                0.9999650120735169,
                0.9999570250511168,
                0.9997439980506896
            ],
            "min": [
                -0.9999750256538392,
                -1.0,
                -0.9998319745063782
            ],
            "type": "VEC3"
        },
        {
            "bufferView": 1,
            "byteOffset": 278196,
            "componentType": 5126,
            "count": 23183,
            "max": [
                0.154339000582695,
                5.146399974822998,
                1.5863699913024905
            ],
            "min": [
                -1.4235399961471558,
                2.7060599327087404,
                -2.00150990486145
            ],
            "type": "VEC3"
        },
        {
            "bufferView": 0,
            "byteOffset": 250530,
            "componentType": 5123,
            "count": 355086,
            "max": [
                60554
            ],
            "min": [
                0
            ],
            "type": "SCALAR"
        },
        {
            "bufferView": 1,
            "byteOffset": 556392,
            "componentType": 5126,
            "count": 60555,
            "max": [
                0.9999880194664002,
                0.9999030232429504,
                0.9999859929084778
            ],
            "min": [
                -0.9999880194664002,
                -0.9999930262565612,
                -0.9999639987945556
            ],
            "type": "VEC3"
        },
        {
            "bufferView": 1,
            "byteOffset": 1283052,
            "componentType": 5126,
            "count": 60555,
            "max": [
                0.716385006904602,
                4.541440010070801,
                1.5888400077819825
            ],
            "min": [
                -1.100019931793213,
                2.49032998085022,
                -1.8506399393081666
            ],
            "type": "VEC3"
        }
    ],
    "materials": [
        {
            "pbrMetallicRoughness": {
                "baseColorFactor": [
                    1.0,
                    1.0,
                    1.0,
                    1.0
                ],
                "metallicFactor": 0.0
            },
            "doubleSided": true,
            "name": "effect_material1"
        },
        {
            "pbrMetallicRoughness": {
                "baseColorFactor": [
                    1.0,
                    1.0,
                    1.0,
                    1.0
                ],
                "metallicFactor": 0.0
            },
            "doubleSided": true,
            "name": "effect_test3_tif_coq"
        }
    ],
    "bufferViews": [
        {
            "buffer": 0,
            "byteOffset": 2009712,
            "byteLength": 960702,
            "target": 34963
        },
        {
            "buffer": 0,
            "byteOffset": 0,
            "byteLength": 2009712,
            "byteStride": 12,
            "target": 34962
        }
    ],
    "buffers": [
        {
            "byteLength": 2970414,
            "uri": "data:application/octet-stream;base64,"
        }
    ]
}
